<?xml version="1.0" encoding="utf-8"?>
<!-- Generator: Adobe Illustrator 27.3.1, SVG Export Plug-In . SVG Version: 6.00 Build 0)  -->
<svg version="1.1" id="logo" xmlns="http://www.w3.org/2000/svg" xmlns:xlink="http://www.w3.org/1999/xlink" x="0px" y="0px"
	 width="1024px" height="1024px" viewBox="0 0 1024 1024" style="enable-background:new 0 0 1024 1024;" xml:space="preserve">
<style type="text/css">
	.st0{fill:#0199EA;}
	.st1{fill:url(#SVGID_1_);}
	.st2{fill:url(#SVGID_00000106855437220105501760000017160745920092403387_);}
	.st3{fill:none;}
	.st4{fill:url(#SVGID_00000013192190282307470010000008925030866028425386_);}
</style>
<g>
	<polygon class="st0" points="317.7,649.5 0,156.5 188.7,156.5 401.6,486.8 	"/>
	<polygon class="st0" points="317.7,649.5 351.2,584.5 317.7,649.5 	"/>
	<linearGradient id="SVGID_1_" gradientUnits="userSpaceOnUse" x1="160.9104" y1="682.4818" x2="265.7003" y2="587.3435">
		<stop  offset="0" style="stop-color:#0199EA"/>
		<stop  offset="1" style="stop-color:#095795"/>
	</linearGradient>
	<polygon class="st1" points="111.4,700.6 291.4,700.6 317.7,649.5 217.7,494.3 	"/>
	
		<linearGradient id="SVGID_00000112597937011414769560000003996574923647945379_" gradientUnits="userSpaceOnUse" x1="509.8289" y1="244.6814" x2="337.477" y2="361.8806">
		<stop  offset="0" style="stop-color:#0199EA"/>
		<stop  offset="1" style="stop-color:#095795"/>
	</linearGradient>
	<path style="fill:url(#SVGID_00000112597937011414769560000003996574923647945379_);" d="M559,156.5H391.8l-90.2,175.1
		c51,79.1,100,155.2,100,155.2l0.4-0.8c-3.5-18.6-5.3-37.8-5.3-57.4C396.6,311,462.3,208.7,559,156.5z"/>
	<path class="st0" d="M777.7,440c-5.5,34.8-35.6,61.4-72,61.4c-40.2,0-72.9-32.6-72.9-72.9c0-40.2,32.6-72.9,72.9-72.9
		c36.3,0,66.5,26.6,72,61.4h35.2c-5.7-54.1-51.5-96.3-107.2-96.3c-59.5,0-107.8,48.3-107.8,107.8s48.3,107.8,107.8,107.8
		c55.7,0,101.5-42.2,107.2-96.3H777.7z"/>
	<rect x="134.2" y="776.9" class="st0" width="34.9" height="39"/>
	<rect x="89.2" y="776.9" class="st0" width="34.9" height="39"/>
	<rect x="179.1" y="776.9" class="st0" width="34.9" height="39"/>
	<rect x="134.2" y="725.2" class="st0" width="34.9" height="39"/>
	<rect x="220.2" y="725.2" class="st0" width="34.9" height="39"/>
	<rect x="263.6" y="725.2" class="st0" width="34.9" height="39"/>
	<rect x="524.7" y="725.2" class="st0" width="34.9" height="39"/>
	<rect x="568.1" y="725.2" class="st0" width="34.9" height="39"/>
	<rect x="739" y="725.2" class="st0" width="34.9" height="39"/>
	<rect x="782.4" y="725.2" class="st0" width="34.9" height="39"/>
	<rect x="989.1" y="725.2" class="st0" width="34.9" height="39"/>
	<rect x="568.1" y="776.9" class="st0" width="34.9" height="39"/>
	<rect x="220.2" y="828.6" class="st0" width="34.9" height="39"/>
	<rect x="263.6" y="828.6" class="st0" width="34.9" height="39"/>
	<rect x="352.1" y="828.6" class="st0" width="34.9" height="39"/>
	<rect x="352.1" y="776.9" class="st0" width="34.9" height="39"/>
	<rect x="437.9" y="776.9" class="st0" width="34.9" height="39"/>
	<rect x="352.1" y="725.2" class="st0" width="34.9" height="39"/>
	<rect x="308.7" y="776.9" class="st0" width="34.9" height="39"/>
	<rect x="395.5" y="828.6" class="st0" width="34.9" height="39"/>
	<rect x="481.3" y="828.6" class="st0" width="34.9" height="39"/>
	<rect x="524.7" y="828.6" class="st0" width="34.9" height="39"/>
	<rect x="524.7" y="776.9" class="st0" width="34.9" height="39"/>
	<rect x="611.5" y="776.9" class="st0" width="34.9" height="39"/>
	<rect x="611.5" y="828.6" class="st0" width="34.9" height="39"/>
	<rect x="654.9" y="776.9" class="st0" width="34.9" height="39"/>
	<rect x="698.3" y="776.9" class="st0" width="34.9" height="39"/>
	<rect x="698.3" y="828.6" class="st0" width="34.9" height="39"/>
	<rect x="740.3" y="828.6" class="st0" width="34.9" height="39"/>
	<rect x="782.4" y="828.6" class="st0" width="34.9" height="39"/>
	<rect x="782.4" y="776.9" class="st0" width="34.9" height="39"/>
	<rect x="862.4" y="776.9" class="st0" width="34.9" height="39"/>
	<rect x="942.7" y="776.9" class="st0" width="34.9" height="39"/>
	<rect x="824.4" y="828.6" class="st0" width="34.9" height="39"/>
	<rect x="899.6" y="828.6" class="st0" width="34.9" height="39"/>
	<rect x="134.2" y="828.6" class="st0" width="34.9" height="39"/>
	<rect x="46.4" y="828.6" class="st0" width="34.9" height="39"/>
	<path class="st3" d="M572.4,428.6c0,73.6,59.7,133.3,133.3,133.3V295.3C632.1,295.3,572.4,354.9,572.4,428.6z"/>
	
		<radialGradient id="SVGID_00000148638990874708384840000016680441007046992548_" cx="707.535" cy="428.5529" r="272.1166" gradientUnits="userSpaceOnUse">
		<stop  offset="0.3171" style="stop-color:#144E69"/>
		<stop  offset="1" style="stop-color:#0094E6"/>
	</radialGradient>
	<path style="fill:url(#SVGID_00000148638990874708384840000016680441007046992548_);" d="M572.4,428.6
		c0-73.6,59.7-133.3,133.3-133.3V156.5c-150.3,0-272.1,121.8-272.1,272.1s121.8,272.1,272.1,272.1V561.8
		C632.1,561.8,572.4,502.2,572.4,428.6z"/>
	<path class="st0" d="M977.8,428.6c0-150.3-121.8-272.1-272.1-272.1v138.8c73.6,0,133.3,59.7,133.3,133.3
		c0,73.6-59.7,133.3-133.3,133.3v138.8C856,700.6,977.8,578.8,977.8,428.6z"/>
</g>
</svg>
